<svg width="36" height="36" viewBox="0 0 36 36" fill="none" xmlns="http://www.w3.org/2000/svg">
<g id="alarm-01">
<path id="Icon" d="M17.9996 13.9681V18.6749C17.9996 18.9805 18.121 19.2735 18.337 19.4895L20.8796 22.0321M3.59961 10.5121V9.3601C3.59961 6.17894 6.17845 3.6001 9.35961 3.6001H10.5116M25.4876 3.6001L26.6396 3.6001C29.8208 3.6001 32.3996 6.17894 32.3996 9.3601V10.5121M8.78361 28.3681L4.75161 32.4001M31.2476 32.4001L27.2156 28.3681M30.6716 19.1521C30.6716 26.1506 24.9982 31.8241 17.9996 31.8241C11.0011 31.8241 5.32761 26.1506 5.32761 19.1521C5.32761 12.1535 11.0011 6.4801 17.9996 6.4801C24.9982 6.4801 30.6716 12.1535 30.6716 19.1521Z" stroke="#EA7B00" stroke-width="1.5" stroke-linecap="round"/>
</g>
</svg>
