<svg width="36" height="36" viewBox="0 0 36 36" fill="none" xmlns="http://www.w3.org/2000/svg">
<g id="currency-dollar">
<path id="Icon" d="M25.1667 11.3333C24.8349 10.3921 24.2291 9.57161 23.4271 8.97756C22.6252 8.38351 21.6638 8.04305 20.6667 8H14C12.6739 8 11.4021 8.52678 10.4645 9.46447C9.52678 10.4021 9 11.6739 9 13C9 14.3261 9.52678 15.5979 10.4645 16.5355C11.4021 17.4732 12.6739 18 14 18H20.6667C21.9927 18 23.2645 18.5268 24.2022 19.4645C25.1399 20.4021 25.6667 21.6739 25.6667 23C25.6667 24.3261 25.1399 25.5979 24.2022 26.5355C23.2645 27.4732 21.9927 28 20.6667 28H14C13.0029 27.9569 12.0415 27.6165 11.2395 27.0224C10.4376 26.4284 9.83174 25.6079 9.5 24.6667M17.3333 3V8M17.3333 28V33" stroke="#EA7B00" stroke-width="1.5" stroke-linecap="round" stroke-linejoin="round"/>
</g>
</svg>
