<svg width="44" height="44" viewBox="0 0 44 44" fill="none" xmlns="http://www.w3.org/2000/svg">
<g id="discount-star-02">
<path id="Icon" d="M14.875 29.125L29.125 14.875M15.9713 15.9622L15.9433 15.934M28.065 28.1803L28.037 28.152M17.2024 6.25137L13.3671 5.41097C12.7543 5.2767 12.1401 5.63131 11.9499 6.22915L10.7601 9.97086C10.6407 10.3464 10.3464 10.6407 9.97086 10.7601L6.22915 11.9499C5.63131 12.1401 5.2767 12.7543 5.41097 13.3671L6.25137 17.2024C6.33572 17.5874 6.22802 17.9893 5.9625 18.2805L3.31702 21.1818C2.89433 21.6454 2.89433 22.3546 3.31702 22.8182L5.9625 25.7195C6.22802 26.0107 6.33572 26.4126 6.25137 26.7976L5.41097 30.6329C5.2767 31.2457 5.63131 31.8599 6.22915 32.0501L9.97086 33.2399C10.3464 33.3594 10.6407 33.6536 10.7601 34.0291L11.9499 37.7709C12.1401 38.3687 12.7543 38.7233 13.3671 38.589L17.2024 37.7486C17.5874 37.6643 17.9893 37.772 18.2805 38.0375L21.1818 40.683C21.6454 41.1057 22.3546 41.1057 22.8182 40.683L25.7195 38.0375C26.0107 37.772 26.4126 37.6643 26.7976 37.7486L30.6329 38.589C31.2457 38.7233 31.8599 38.3687 32.0501 37.7709L33.2399 34.0291C33.3593 33.6536 33.6536 33.3593 34.0291 33.2399L37.7709 32.0501C38.3687 31.8599 38.7233 31.2457 38.589 30.6329L37.7486 26.7976C37.6643 26.4126 37.772 26.0107 38.0375 25.7195L40.683 22.8182C41.1057 22.3546 41.1057 21.6454 40.683 21.1818L38.0375 18.2805C37.772 17.9893 37.6643 17.5874 37.7486 17.2024L38.589 13.3671C38.7233 12.7543 38.3687 12.1401 37.7709 11.9499L34.0291 10.7601C33.6536 10.6407 33.3593 10.3464 33.2399 9.97086L32.0501 6.22915C31.8599 5.63131 31.2457 5.2767 30.6329 5.41097L26.7976 6.25137C26.4126 6.33572 26.0107 6.22802 25.7195 5.9625L22.8182 3.31702C22.3546 2.89433 21.6454 2.89433 21.1818 3.31702L18.2805 5.9625C17.9893 6.22802 17.5874 6.33572 17.2024 6.25137Z" stroke="#F6F1EE" stroke-width="2" stroke-linecap="round"/>
</g>
</svg>
