<svg width="42" height="42" viewBox="0 0 42 42" fill="none" xmlns="http://www.w3.org/2000/svg">
<g id="hourglass-outline">
<path id="Vector" d="M11.8004 38H30.1989C31.8489 38 33.1614 36.6686 32.9839 35.1345C31.838 25.25 24.9997 25.4135 24.9997 21C24.9997 16.5865 31.9255 16.8317 32.9831 6.86548C33.1497 5.33058 31.8489 4 30.1989 4H11.8004C10.1504 4 8.85292 5.33058 9.01625 6.86548C10.0738 16.8317 16.9996 16.5048 16.9996 21C16.9996 25.4952 10.1613 25.25 9.01625 35.1345C8.83792 36.6686 10.1504 38 11.8004 38Z" stroke="#FFFBF9" stroke-width="1.5" stroke-linecap="round" stroke-linejoin="round"/>
<path id="Vector_2" d="M27.8471 33H14.1855C12.9619 33 12.6168 31.5 13.4749 30.57C15.5519 28.3333 19.7444 26.7317 19.7444 24.1667V15.6667C19.7444 14.0125 16.7638 12.75 14.9197 10.0667C14.6154 9.62417 14.646 9 15.4194 9H26.6148C27.2745 9 27.4172 9.61917 27.1168 10.0625C25.2994 12.75 22.2544 14.0042 22.2544 15.6667V24.1667C22.2544 26.7108 26.6242 28.0833 28.5608 30.5725C29.3413 31.5758 29.0683 33 27.8471 33Z" fill="#FFFBF9"/>
</g>
</svg>
