<svg width="26" height="26" viewBox="0 0 26 26" fill="none" xmlns="http://www.w3.org/2000/svg">
<g id="Icon insta">
<circle id="Ellipse 16" cx="13" cy="13" r="12" stroke="#EA7B00"/>
<g id="Instagram">
<path id="Vector" d="M15.81 17.3934H10.1653C9.3853 17.3934 8.74805 16.7561 8.74805 15.9761V10.3314C8.74805 9.55137 9.3853 8.91412 10.1653 8.91412H15.81C16.5901 8.91412 17.2273 9.55137 17.2273 10.3314V15.9761C17.2273 16.7596 16.5935 17.3934 15.81 17.3934Z" stroke="#EA7B00"/>
<path id="Vector_2" d="M11.4498 14.6956C11.8607 15.1066 12.4074 15.333 12.9889 15.333C13.5704 15.333 14.1137 15.1066 14.5281 14.6956C14.939 14.2846 15.1653 13.7378 15.1653 13.1561C15.1653 12.5744 14.939 12.0276 14.5281 11.6166C14.1171 11.2056 13.5704 10.9792 12.9889 10.9792C12.4074 10.9792 11.8607 11.2056 11.4498 11.6166C11.0388 12.0276 10.8125 12.5744 10.8125 13.1561C10.8125 13.7378 11.0388 14.2846 11.4498 14.6956Z" stroke="#EA7B00"/>
<path id="Vector_3" d="M15.5898 10.9094C15.8205 10.9094 16.0076 10.722 16.0076 10.4908C16.0076 10.2596 15.8205 10.0722 15.5898 10.0722C15.359 10.0722 15.1719 10.2596 15.1719 10.4908C15.1719 10.722 15.359 10.9094 15.5898 10.9094Z" stroke="#EA7B00"/>
</g>
</g>
</svg>
