<svg width="26" height="26" viewBox="0 0 26 26" fill="none" xmlns="http://www.w3.org/2000/svg">
<g id="Icon telegram">
<circle id="Ellipse 12" cx="13" cy="13" r="12" stroke="#EA7B00"/>
<path id="Twitter" d="M8.19922 16.1625C9.24406 16.2213 10.1577 15.977 11.0488 15.3302C10.1487 15.1764 9.52449 14.7648 9.18526 13.9145C9.4476 13.8783 9.67828 13.9461 9.94966 13.8376C9.06314 13.4486 8.4887 12.8651 8.46608 11.8565C8.74652 11.8791 8.9591 12.0645 9.29381 12.0374C8.47965 11.2413 8.23088 10.3729 8.74199 9.31899C9.59234 10.296 10.5874 10.9609 11.8041 11.273C11.872 11.2911 11.9353 11.3092 12.0032 11.3227C12.3152 11.3951 12.6861 11.5489 12.8761 11.5263C13.2018 11.4856 12.8761 11.1101 12.9575 10.6216C13.2153 9.10188 14.8889 8.40985 16.1282 9.3009C16.4901 9.56324 16.775 9.55872 17.1324 9.40041C17.3178 9.31899 17.5078 9.23758 17.7294 9.14259C17.6797 9.57681 17.3449 9.81653 17.0781 10.1377C17.3811 10.2055 17.6254 10.1196 17.9058 10.0291C17.8108 10.3412 17.5756 10.5176 17.363 10.6895C17.1414 10.8659 17.0555 11.0513 17.0464 11.3408C16.9107 15.7237 11.9308 19.1115 8.52489 16.4157C8.1947 16.1534 8.51584 16.4157 8.19922 16.1625Z" stroke="#EA7B00"/>
</g>
</svg>
