<svg width="24" height="24" viewBox="0 0 24 24" fill="none" xmlns="http://www.w3.org/2000/svg">
<g id="Utility/Eye-off/Medium">
<path id="Vector" d="M21.2218 22.0136C21.1177 22.0137 21.0146 21.9933 20.9185 21.9535C20.8224 21.9136 20.7351 21.8551 20.6617 21.7813L3.23157 4.35153C3.08926 4.20174 3.01109 4.00229 3.01374 3.7957C3.01638 3.58911 3.09963 3.39172 3.24572 3.24563C3.39182 3.09953 3.58921 3.01629 3.79581 3.01364C4.0024 3.011 4.20186 3.08916 4.35165 3.23147L21.7818 20.6613C21.8925 20.7721 21.9679 20.9132 21.9985 21.0669C22.029 21.2205 22.0133 21.3797 21.9534 21.5245C21.8934 21.6692 21.792 21.7929 21.6617 21.8799C21.5315 21.967 21.3784 22.0135 21.2218 22.0136ZM12.1105 15.47L9.54603 12.9055C9.53134 12.8909 9.51245 12.8813 9.49202 12.8781C9.47158 12.8748 9.45063 12.878 9.43211 12.8872C9.41359 12.8964 9.39843 12.9112 9.38875 12.9295C9.37908 12.9478 9.37538 12.9687 9.37817 12.9892C9.4817 13.6545 9.7941 14.2697 10.2702 14.7458C10.7463 15.2219 11.3615 15.5343 12.0269 15.6378C12.0474 15.6406 12.0682 15.6369 12.0865 15.6272C12.1048 15.6176 12.1196 15.6024 12.1289 15.5839C12.1381 15.5654 12.1413 15.5444 12.138 15.524C12.1347 15.5036 12.1251 15.4847 12.1105 15.47ZM12.9028 9.54284L15.4713 12.1103C15.486 12.1251 15.5049 12.1348 15.5254 12.1382C15.546 12.1416 15.567 12.1385 15.5857 12.1292C15.6043 12.1199 15.6196 12.105 15.6293 12.0866C15.6389 12.0682 15.6426 12.0472 15.6397 12.0266C15.5364 11.3604 15.2238 10.7443 14.747 10.2676C14.2703 9.79087 13.6542 9.47825 12.988 9.37498C12.9674 9.3718 12.9463 9.37522 12.9277 9.38475C12.9091 9.39428 12.894 9.40943 12.8846 9.42805C12.8751 9.44666 12.8718 9.46779 12.8751 9.4884C12.8784 9.50902 12.8881 9.52807 12.9028 9.54284Z" fill="#989898"/>
<path id="Vector_2" d="M22.5189 12.8137C22.6706 12.5702 22.7508 12.2872 22.75 11.9984C22.7492 11.7096 22.6674 11.4271 22.5143 11.1844C21.3016 9.26625 19.7283 7.63688 17.9648 6.47203C16.0111 5.18203 13.8571 4.5 11.7343 4.5C10.6152 4.50157 9.50375 4.6882 8.44289 5.05266C8.41319 5.06276 8.38652 5.08046 8.36542 5.10409C8.34431 5.12772 8.32946 5.15647 8.3223 5.18763C8.31513 5.21878 8.31588 5.25129 8.32447 5.28207C8.33307 5.31284 8.34922 5.34085 8.37139 5.36344L10.5364 7.57781C10.5589 7.60086 10.5868 7.61752 10.6175 7.62615C10.6482 7.63478 10.6806 7.63508 10.7114 7.62703C11.4453 7.44412 12.2128 7.45752 12.9401 7.66595C13.6674 7.87438 14.33 8.27082 14.8641 8.8171C15.3982 9.36338 15.7858 10.0411 15.9896 10.785C16.1933 11.5289 16.2065 12.3139 16.0276 13.0645C16.0198 13.096 16.0202 13.129 16.0286 13.1603C16.037 13.1916 16.0533 13.2202 16.0757 13.2431L19.1898 16.4306C19.2222 16.4638 19.2656 16.4834 19.3114 16.4855C19.3572 16.4876 19.4022 16.472 19.4373 16.4419C20.636 15.3968 21.6747 14.1739 22.5189 12.8137ZM11.749 16.5C11.083 16.5 10.4257 16.3454 9.82657 16.0478C9.22748 15.7502 8.70228 15.3173 8.29055 14.7819C7.87883 14.2464 7.59133 13.6223 7.44973 12.9567C7.30814 12.2911 7.31614 11.6012 7.47314 10.9392C7.48093 10.9077 7.48059 10.8747 7.47215 10.8434C7.46371 10.8121 7.44747 10.7836 7.42502 10.7606L4.3618 7.62609C4.32932 7.59283 4.2858 7.57327 4.23988 7.57127C4.19396 7.56927 4.14898 7.58499 4.11386 7.61531C2.99609 8.59078 1.95989 9.77766 1.0126 11.1647C0.846782 11.4081 0.75546 11.6965 0.750237 11.9931C0.745015 12.2897 0.826127 12.5813 0.983268 12.8306C2.19362 14.768 3.75089 16.3997 5.48736 17.5486C7.44381 18.8438 9.54554 19.5 11.7343 19.5C12.8647 19.4969 13.9878 19.3143 15.0634 18.9586C15.0933 18.9488 15.1203 18.9313 15.1418 18.9078C15.1632 18.8842 15.1783 18.8554 15.1857 18.8242C15.1932 18.7929 15.1926 18.7602 15.1841 18.7293C15.1756 18.6983 15.1594 18.6701 15.1372 18.6473L12.9616 16.4227C12.9392 16.3997 12.9113 16.3831 12.8807 16.3744C12.8501 16.3658 12.8178 16.3655 12.787 16.3734C12.4472 16.4577 12.0987 16.5002 11.749 16.5Z" fill="#989898"/>
</g>
</svg>
