<svg width="44" height="44" viewBox="0 0 44 44" fill="none" xmlns="http://www.w3.org/2000/svg">
<g id="restaurant-outline">
<path id="Vector" d="M6.53508 5L37.0944 35.698C37.6742 36.2805 38 37.0705 38 37.8943C38 38.7181 37.6742 39.5081 37.0944 40.0906C36.5144 40.6729 35.728 41 34.908 41C34.088 41 33.3016 40.6729 32.7216 40.0906L25.2565 32.4626C24.768 31.9643 24.494 31.2931 24.4934 30.5937V30.1329C24.4935 29.7798 24.4237 29.4302 24.2882 29.1043C24.1526 28.7785 23.954 28.483 23.7038 28.2349L22.74 27.3409C22.4128 27.0376 22.0149 26.8219 21.583 26.7135C21.1511 26.6052 20.6989 26.6078 20.2682 26.7209C19.5891 26.899 18.8753 26.8956 18.1979 26.711C17.5204 26.5264 16.9028 26.167 16.4063 25.6686L9.32037 18.5497C5.11673 14.327 3.56981 7.9504 6.53508 5Z" stroke="#FFFBF9" stroke-width="1.5" stroke-linejoin="round"/>
<path id="Vector_2" d="M34.2142 4L27.6616 10.5526C27.1574 11.0567 26.7574 11.6552 26.4845 12.3139C26.2116 12.9726 26.0711 13.6787 26.0711 14.3917V15.6521C26.0712 15.8305 26.0361 16.0071 25.9678 16.1718C25.8995 16.3366 25.7995 16.4863 25.6733 16.6123L24.714 17.5717M27.4283 20.286L28.3877 19.3267C28.5137 19.2005 28.6634 19.1005 28.8282 19.0322C28.9929 18.9639 29.1695 18.9288 29.3479 18.9289H30.6083C31.3213 18.9289 32.0274 18.7884 32.6861 18.5155C33.3448 18.2426 33.9433 17.8426 34.4474 17.3384L41 10.7858M37.6071 7.39292L30.8212 14.1788M17.2495 32.5005L8.79099 41.0066C8.15473 41.6427 7.29188 42 6.3922 42C5.49252 42 4.62967 41.6427 3.9934 41.0066C3.35733 40.3703 3 39.5075 3 38.6078C3 37.7081 3.35733 36.8453 3.9934 36.209L11.1423 29.1076" stroke="#FFFBF9" stroke-width="1.5" stroke-linecap="round" stroke-linejoin="round"/>
</g>
</svg>
