<svg width="56" height="42" viewBox="0 0 56 42" fill="none" xmlns="http://www.w3.org/2000/svg">
<g id="Logo_Delivery_svg/Mobile 1" clip-path="url(#clip0_267_1077)">
<path id="Vector" d="M56 11H39V15H56V11Z" fill="#F6F1EE"/>
<path id="Vector_2" d="M56 4H39V8H56V4Z" fill="#F6F1EE"/>
<path id="Vector_3" d="M31.9952 21.5586L30.6146 0.74557L34.5985 0.622838L36.0662 20.566L31.9952 21.5586Z" fill="#F6F1EE"/>
<path id="Vector_4" d="M34.6621 0H23.6621V4H34.6621V0Z" fill="#F6F1EE"/>
<path id="Vector_5" d="M56 18H32V22H56V18Z" fill="#F6F1EE"/>
<path id="Vector_6" d="M37.0714 27.4615C38.3781 27.4615 39.4375 26.3767 39.4375 25.0385C39.4375 23.7002 38.3781 22.6154 37.0714 22.6154C35.7645 22.6154 34.7051 23.7002 34.7051 25.0385C34.7051 26.3767 35.7645 27.4615 37.0714 27.4615Z" fill="#F6F1EE"/>
<path id="Vector_7" d="M51.2684 27.4615C52.5753 27.4615 53.6347 26.3767 53.6347 25.0385C53.6347 23.7002 52.5753 22.6154 51.2684 22.6154C49.9617 22.6154 48.9023 23.7002 48.9023 25.0385C48.9023 26.3767 49.9617 27.4615 51.2684 27.4615Z" fill="#F6F1EE"/>
<path id="Vector_8" d="M0 27.125V0H8.01716C11.3538 0 13.6699 0.260783 14.9654 0.782354C17.7353 1.8707 19.1202 3.78744 19.1202 6.53259C19.1202 8.42131 18.6393 9.99647 17.6776 11.2581C16.716 12.5198 15.1082 13.6919 12.8544 14.7743L22.75 27.125H17.4222L8.37428 15.8355H4.3975V27.125H0ZM4.3975 12.7061H6.72078C9.09322 12.7061 10.97 12.2117 12.3511 11.223C13.7322 10.2342 14.4248 8.89934 14.4291 7.21827C14.4291 5.65104 13.9076 4.57734 12.8646 3.99716C11.8215 3.41701 9.90028 3.12774 7.10078 3.1294H4.3975V12.7061Z" fill="#F6F1EE"/>
<path id="Vector_9" d="M48.4023 31.5181H50.007L51.7145 35.4727L52.2949 37.1191H52.329L52.9095 35.4727L54.463 31.5181H55.9994L52.9095 39.0155C52.5679 39.8486 52.1356 40.5006 51.612 40.971C51.0999 41.4415 50.4853 41.7842 49.7682 42L49.1194 40.971C49.6542 40.7945 50.1267 40.5398 50.5363 40.2064C50.9575 39.8732 51.2818 39.4124 51.5095 38.8246L51.6631 38.4277L48.4023 31.5181Z" fill="#F6F1EE"/>
<path id="Vector_10" d="M42.6914 38.4277V31.5181H43.8181L44.0745 32.8998C44.268 32.459 44.5866 32.1012 45.0304 31.8266C45.4742 31.5523 45.9863 31.415 46.5667 31.415C46.8627 31.415 47.1076 31.4347 47.301 31.4739C47.4945 31.5131 47.6707 31.562 47.8301 31.6208L47.5398 32.7529C47.4035 32.694 47.2496 32.6452 47.0791 32.6059C46.9195 32.5667 46.726 32.5471 46.4987 32.5471C46.1686 32.5471 45.8611 32.596 45.5767 32.694C45.3034 32.7921 45.0588 32.9391 44.8426 33.1352C44.6377 33.331 44.4726 33.5761 44.3475 33.8703C44.2338 34.1545 44.1767 34.4827 44.1767 34.8551V38.4277H42.6914Z" fill="#F6F1EE"/>
<path id="Vector_11" d="M40.9507 35.1197H35.1974V35.1785C35.1974 35.9432 35.4366 36.531 35.9145 36.9429C36.404 37.3545 37.0639 37.5603 37.895 37.5603C38.3273 37.5603 38.7088 37.5307 39.0386 37.4719C39.3802 37.4134 39.7499 37.3153 40.1484 37.178L40.4558 38.1335C40.1257 38.2611 39.733 38.3639 39.2777 38.4423C38.8339 38.5208 38.3557 38.56 37.8436 38.56C37.2631 38.56 36.7169 38.4912 36.2047 38.3542C35.7041 38.2169 35.26 38.0061 34.8731 37.7219C34.4861 37.428 34.179 37.0556 33.9513 36.6048C33.7349 36.1537 33.627 35.6147 33.627 34.9874C33.627 34.4484 33.7179 33.9584 33.8999 33.5172C34.0934 33.0764 34.361 32.704 34.7026 32.4001C35.0439 32.0863 35.4535 31.8462 35.9318 31.6797C36.4209 31.5031 36.9672 31.415 37.5706 31.415C38.0827 31.415 38.5437 31.4885 38.9533 31.6355C39.3745 31.7827 39.733 31.9885 40.029 32.2532C40.3249 32.5178 40.5526 32.8363 40.7119 33.2087C40.8712 33.581 40.9507 33.9926 40.9507 34.4435V35.1197ZM39.3971 34.1938C39.3971 33.9388 39.3575 33.7037 39.2777 33.488C39.2094 33.2625 39.0957 33.0664 38.9364 32.8998C38.7883 32.7333 38.5948 32.6009 38.356 32.5029C38.1169 32.4051 37.8266 32.3559 37.485 32.3559C36.8592 32.3559 36.3471 32.5275 35.9487 32.8706C35.5617 33.2137 35.3226 33.6645 35.2316 34.223L39.3971 34.1938Z" fill="#F6F1EE"/>
<path id="Vector_12" d="M31.32 31.5181H32.9249L29.9372 38.4277H28.469L25.4473 31.5181H27.0691L28.8788 36.2663L29.186 37.3545H29.2543L29.5446 36.2813L31.32 31.5181Z" fill="#F6F1EE"/>
<path id="Vector_13" d="M22.4236 38.4276V31.518H23.926V38.4276H22.4236ZM23.1748 29.739C22.913 29.739 22.6854 29.6655 22.4919 29.5185C22.3098 29.3617 22.2188 29.1706 22.2188 28.9452C22.2188 28.7197 22.3098 28.5286 22.4919 28.3718C22.6854 28.215 22.913 28.1366 23.1748 28.1366C23.4252 28.1366 23.6471 28.215 23.8406 28.3718C24.0341 28.5286 24.1308 28.7197 24.1308 28.9452C24.1308 29.1706 24.0341 29.3617 23.8406 29.5185C23.6471 29.6655 23.4252 29.739 23.1748 29.739Z" fill="#F6F1EE"/>
<path id="Vector_14" d="M18.3184 38.4277V27.9896H19.7866V38.4277H18.3184Z" fill="#F6F1EE"/>
<path id="Vector_15" d="M16.4762 35.1197H10.723V35.1785C10.723 35.9432 10.962 36.531 11.44 36.9429C11.9294 37.3545 12.5895 37.5603 13.4203 37.5603C13.8528 37.5603 14.2341 37.5307 14.5641 37.4719C14.9056 37.4134 15.2755 37.3153 15.6738 37.178L15.9811 38.1335C15.6511 38.2611 15.2584 38.3639 14.8032 38.4423C14.3593 38.5208 13.8813 38.56 13.3691 38.56C12.7887 38.56 12.2424 38.4912 11.7302 38.3542C11.2294 38.2169 10.7856 38.0061 10.3986 37.7219C10.0116 37.428 9.70433 37.0556 9.47672 36.6048C9.26045 36.1537 9.15234 35.6147 9.15234 34.9874C9.15234 34.4484 9.2434 33.9584 9.42548 33.5172C9.61899 33.0764 9.88644 32.704 10.2279 32.4001C10.5693 32.0863 10.979 31.8462 11.4571 31.6797C11.9464 31.5031 12.4927 31.415 13.096 31.415C13.6081 31.415 14.0691 31.4885 14.4788 31.6355C14.8999 31.7827 15.2584 31.9885 15.5543 32.2532C15.8503 32.5178 16.0779 32.8363 16.2372 33.2087C16.3966 33.581 16.4762 33.9926 16.4762 34.4435V35.1197ZM14.9227 34.1938C14.9227 33.9388 14.8828 33.7037 14.8032 33.488C14.7349 33.2625 14.6211 33.0664 14.4617 32.8998C14.3138 32.7333 14.1203 32.6009 13.8813 32.5029C13.6423 32.4051 13.3521 32.3559 13.0106 32.3559C12.3846 32.3559 11.8725 32.5275 11.4741 32.8706C11.0872 33.2137 10.8481 33.6645 10.7571 34.223L14.9227 34.1938Z" fill="#F6F1EE"/>
<path id="Vector_16" d="M5.82154 27.9896H7.32387V38.4277H6.06055L5.87275 37.663H5.82154C5.46872 37.9768 5.11021 38.2069 4.74602 38.3542C4.39319 38.4912 3.94363 38.56 3.39732 38.56C2.96483 38.56 2.54372 38.4865 2.13399 38.3392C1.73565 38.1923 1.37714 37.9719 1.05846 37.678C0.739784 37.3837 0.483704 37.0164 0.290223 36.5752C0.0967411 36.1244 0 35.5951 0 34.9873C0 34.4484 0.0796691 33.9584 0.239007 33.5172C0.409726 33.0763 0.648735 32.699 0.956029 32.3855C1.26332 32.0716 1.63891 31.8316 2.08278 31.665C2.52665 31.4984 3.03311 31.415 3.60217 31.415C4.02328 31.415 4.42164 31.4738 4.79723 31.5915C5.18418 31.6993 5.52561 31.8658 5.82154 32.0912V27.9896ZM5.82154 33.1791C5.2866 32.6598 4.65496 32.4001 3.92654 32.4001C3.61925 32.4001 3.31766 32.449 3.02174 32.547C2.7372 32.6352 2.48112 32.7821 2.2535 32.9882C2.03725 33.194 1.86084 33.4587 1.72427 33.7818C1.58769 34.1053 1.5194 34.4926 1.5194 34.9434C1.5194 35.4139 1.582 35.8155 1.7072 36.149C1.83239 36.4724 1.99742 36.7418 2.20228 36.9575C2.41853 37.1633 2.65753 37.3152 2.9193 37.4133C3.19245 37.5111 3.46561 37.5603 3.73875 37.5603C4.59235 37.5603 5.2866 37.2418 5.82154 36.6048V33.1791Z" fill="#F6F1EE"/>
</g>
<defs>
<clipPath id="clip0_267_1077">
<rect width="56" height="42" fill="white"/>
</clipPath>
</defs>
</svg>
