<svg aria-hidden="true" style="position: absolute; width: 0; height: 0; overflow: hidden;" version="1.1" xmlns="http://www.w3.org/2000/svg" xmlns:xlink="http://www.w3.org/1999/xlink">
<defs>
<symbol id="icon-past-point" viewBox="0 0 32 32">
<path fill="#f6f1ee" style="fill: var(--color1, #f6f1ee)" d="M32 16c0 8.837-7.163 16-16 16s-16-7.163-16-16c0-8.837 7.163-16 16-16s16 7.163 16 16z"></path>
<path fill="#ea7b00" style="fill: var(--color2, #ea7b00)" d="M28 16c0 6.627-5.373 12-12 12s-12-5.373-12-12c0-6.627 5.373-12 12-12s12 5.373 12 12z"></path>
</symbol>
<symbol id="icon-future-point" viewBox="0 0 32 32">
<path fill="#f6f1ee" style="fill: var(--color1, #f6f1ee)" d="M32 16c0 8.837-7.163 16-16 16s-16-7.163-16-16c0-8.837 7.163-16 16-16s16 7.163 16 16z"></path>
<path fill="#ffd6aa" style="fill: var(--color3, #ffd6aa)" d="M28 16c0 6.627-5.373 12-12 12s-12-5.373-12-12c0-6.627 5.373-12 12-12s12 5.373 12 12z"></path>
</symbol>
<symbol id="icon-current-point" viewBox="0 0 32 32">
<path fill="#ea7b00" style="fill: var(--color2, #ea7b00)" d="M32 16c0 8.837-7.163 16-16 16s-16-7.163-16-16c0-8.837 7.163-16 16-16s16 7.163 16 16z"></path>
<path fill="#f6f1ee" style="fill: var(--color1, #f6f1ee)" d="M28 16c0 6.627-5.373 12-12 12s-12-5.373-12-12c0-6.627 5.373-12 12-12s12 5.373 12 12z"></path>
</symbol>
<symbol id="icon-chevron-down-outline" viewBox="0 0 36 32">
<path stroke-linejoin="round" stroke-linecap="round" stroke-miterlimit="4" stroke-width="0.6667" d="M11.333 11.333l4 4 4-4"></path>
</symbol>
<symbol id="icon-close-circle-outline-orange" viewBox="0 0 32 32">
<path fill="none" stroke="#ea7b00" style="stroke: var(--color2, #ea7b00)" stroke-linejoin="miter" stroke-linecap="butt" stroke-miterlimit="10" stroke-width="1.2308" d="M28.308 16c0-6.795-5.513-12.308-12.308-12.308s-12.308 5.513-12.308 12.308c0 6.795 5.513 12.308 12.308 12.308s12.308-5.513 12.308-12.308z"></path>
<path fill="none" stroke="#ea7b00" style="stroke: var(--color2, #ea7b00)" stroke-linejoin="round" stroke-linecap="round" stroke-miterlimit="4" stroke-width="1.2308" d="M19.692 19.692l-7.385-7.385M12.308 19.692l7.385-7.385"></path>
</symbol>
<symbol id="icon-white-logo" viewBox="0 0 43 32">
<path fill="#f6f1ee" style="fill: var(--color1, #f6f1ee)" d="M42.667 8.381h-12.952v3.048h12.952v-3.048z"></path>
<path fill="#f6f1ee" style="fill: var(--color1, #f6f1ee)" d="M42.667 3.048h-12.952v3.048h12.952v-3.048z"></path>
<path fill="#f6f1ee" style="fill: var(--color1, #f6f1ee)" d="M24.377 16.426l-1.052-15.858 3.035-0.094 1.118 15.195-3.102 0.756z"></path>
<path fill="#f6f1ee" style="fill: var(--color1, #f6f1ee)" d="M26.409 0h-8.381v3.048h8.381v-3.048z"></path>
<path fill="#f6f1ee" style="fill: var(--color1, #f6f1ee)" d="M42.667 13.714h-18.286v3.048h18.286v-3.048z"></path>
<path fill="#f6f1ee" style="fill: var(--color1, #f6f1ee)" d="M28.245 20.923c0.996 0 1.803-0.826 1.803-1.846s-0.807-1.846-1.803-1.846c-0.996 0-1.803 0.826-1.803 1.846s0.807 1.846 1.803 1.846z"></path>
<path fill="#f6f1ee" style="fill: var(--color1, #f6f1ee)" d="M39.062 20.923c0.996 0 1.803-0.826 1.803-1.846s-0.807-1.846-1.803-1.846c-0.996 0-1.803 0.826-1.803 1.846s0.807 1.846 1.803 1.846z"></path>
<path fill="#f6f1ee" style="fill: var(--color1, #f6f1ee)" d="M0 20.667v-20.667h6.108c2.542 0 4.307 0.199 5.294 0.596 2.11 0.829 3.166 2.29 3.166 4.381 0 1.439-0.366 2.639-1.099 3.6s-1.958 1.854-3.675 2.679l7.539 9.41h-4.059l-6.894-8.602h-3.030v8.602h-3.35zM3.35 9.681h1.77c1.808 0 3.237-0.377 4.29-1.13s1.58-1.77 1.583-3.051c0-1.194-0.397-2.012-1.192-2.454s-2.259-0.662-4.391-0.661h-2.060v7.297z"></path>
<path fill="#f6f1ee" style="fill: var(--color1, #f6f1ee)" d="M36.878 24.014h1.223l1.301 3.013 0.442 1.254h0.026l0.442-1.254 1.184-3.013h1.171l-2.354 5.712c-0.26 0.635-0.59 1.131-0.989 1.49-0.39 0.358-0.858 0.62-1.405 0.784l-0.494-0.784c0.407-0.134 0.767-0.329 1.080-0.583 0.321-0.254 0.568-0.605 0.742-1.053l0.117-0.302-2.484-5.264z"></path>
<path fill="#f6f1ee" style="fill: var(--color1, #f6f1ee)" d="M32.527 29.278v-5.264h0.858l0.195 1.053c0.147-0.336 0.39-0.608 0.728-0.818s0.728-0.314 1.17-0.314c0.226 0 0.412 0.015 0.559 0.045s0.282 0.067 0.403 0.112l-0.221 0.863c-0.104-0.045-0.221-0.082-0.351-0.112-0.122-0.030-0.269-0.045-0.442-0.045-0.252 0-0.486 0.037-0.702 0.112-0.208 0.075-0.395 0.187-0.559 0.336-0.156 0.149-0.282 0.336-0.377 0.56-0.087 0.217-0.13 0.467-0.13 0.75v2.722h-1.132z"></path>
<path fill="#f6f1ee" style="fill: var(--color1, #f6f1ee)" d="M31.201 26.758h-4.383v0.045c0 0.583 0.182 1.030 0.546 1.344 0.373 0.314 0.876 0.47 1.509 0.47 0.329 0 0.62-0.023 0.871-0.067 0.26-0.045 0.542-0.119 0.846-0.224l0.234 0.728c-0.252 0.097-0.551 0.176-0.898 0.235-0.338 0.060-0.702 0.090-1.093 0.090-0.442 0-0.858-0.052-1.249-0.157-0.381-0.105-0.72-0.265-1.015-0.482-0.295-0.224-0.529-0.508-0.702-0.851-0.165-0.344-0.247-0.754-0.247-1.232 0-0.411 0.069-0.784 0.208-1.12 0.147-0.336 0.351-0.62 0.612-0.851 0.26-0.239 0.572-0.422 0.937-0.549 0.373-0.135 0.789-0.202 1.249-0.202 0.39 0 0.741 0.056 1.053 0.168 0.321 0.112 0.594 0.269 0.82 0.471s0.399 0.444 0.52 0.728c0.121 0.284 0.182 0.597 0.182 0.941v0.515zM30.017 26.052c0-0.194-0.030-0.373-0.091-0.538-0.052-0.172-0.139-0.321-0.26-0.448-0.113-0.127-0.26-0.228-0.442-0.302s-0.403-0.112-0.664-0.112c-0.477 0-0.867 0.131-1.171 0.392-0.295 0.261-0.477 0.605-0.546 1.030l3.174-0.022z"></path>
<path fill="#f6f1ee" style="fill: var(--color1, #f6f1ee)" d="M23.863 24.014h1.223l-2.276 5.264h-1.119l-2.302-5.264h1.236l1.379 3.618 0.234 0.829h0.052l0.221-0.818 1.353-3.629z"></path>
<path fill="#f6f1ee" style="fill: var(--color1, #f6f1ee)" d="M17.085 29.278v-5.264h1.145v5.264h-1.145zM17.657 22.658c-0.199 0-0.373-0.056-0.52-0.168-0.139-0.119-0.208-0.265-0.208-0.437s0.069-0.317 0.208-0.437c0.147-0.119 0.321-0.179 0.52-0.179 0.191 0 0.36 0.060 0.507 0.179s0.221 0.265 0.221 0.437c0 0.172-0.074 0.317-0.221 0.437-0.147 0.112-0.317 0.168-0.507 0.168z"></path>
<path fill="#f6f1ee" style="fill: var(--color1, #f6f1ee)" d="M13.957 29.278v-7.953h1.119v7.953h-1.119z"></path>
<path fill="#f6f1ee" style="fill: var(--color1, #f6f1ee)" d="M12.553 26.758h-4.383v0.045c0 0.583 0.182 1.030 0.546 1.344 0.373 0.314 0.876 0.47 1.509 0.47 0.33 0 0.62-0.023 0.871-0.067 0.26-0.045 0.542-0.119 0.845-0.224l0.234 0.728c-0.251 0.097-0.551 0.176-0.897 0.235-0.338 0.060-0.702 0.090-1.093 0.090-0.442 0-0.858-0.052-1.249-0.157-0.382-0.105-0.72-0.265-1.015-0.482-0.295-0.224-0.529-0.508-0.702-0.851-0.165-0.344-0.247-0.754-0.247-1.232 0-0.411 0.069-0.784 0.208-1.12 0.147-0.336 0.351-0.62 0.611-0.851 0.26-0.239 0.572-0.422 0.937-0.549 0.373-0.135 0.789-0.202 1.249-0.202 0.39 0 0.741 0.056 1.054 0.168 0.321 0.112 0.594 0.269 0.819 0.471s0.399 0.444 0.52 0.728c0.121 0.284 0.182 0.597 0.182 0.941v0.515zM11.37 26.052c0-0.194-0.030-0.373-0.091-0.538-0.052-0.172-0.139-0.321-0.26-0.448-0.113-0.127-0.26-0.228-0.442-0.302s-0.403-0.112-0.663-0.112c-0.477 0-0.867 0.131-1.171 0.392-0.295 0.261-0.477 0.605-0.546 1.030l3.174-0.022z"></path>
<path fill="#f6f1ee" style="fill: var(--color1, #f6f1ee)" d="M4.435 21.325h1.145v7.953h-0.963l-0.143-0.583h-0.039c-0.269 0.239-0.542 0.414-0.819 0.527-0.269 0.104-0.611 0.157-1.028 0.157-0.33 0-0.65-0.056-0.963-0.168-0.304-0.112-0.577-0.28-0.819-0.504s-0.438-0.504-0.585-0.84c-0.147-0.343-0.221-0.747-0.221-1.21 0-0.411 0.061-0.784 0.182-1.12 0.13-0.336 0.312-0.623 0.546-0.862s0.52-0.422 0.858-0.549 0.724-0.19 1.158-0.19c0.321 0 0.624 0.045 0.911 0.134 0.295 0.082 0.555 0.209 0.78 0.381v-3.125zM4.435 25.279c-0.408-0.396-0.889-0.594-1.444-0.594-0.234 0-0.464 0.037-0.689 0.112-0.217 0.067-0.412 0.179-0.585 0.336-0.165 0.157-0.299 0.358-0.403 0.605s-0.156 0.542-0.156 0.885c0 0.358 0.048 0.664 0.143 0.919 0.095 0.246 0.221 0.452 0.377 0.616 0.165 0.157 0.347 0.273 0.546 0.347 0.208 0.075 0.416 0.112 0.624 0.112 0.65 0 1.179-0.243 1.587-0.728v-2.61z"></path>
</symbol>
<symbol id="icon-hourglass-outline" viewBox="0 0 32 32">
<path fill="none" stroke="#fffbf9" style="stroke: var(--color4, #fffbf9)" stroke-linejoin="round" stroke-linecap="round" stroke-miterlimit="4" stroke-width="1.1429" d="M8.991 28.952h14.018c1.257 0 2.257-1.014 2.122-2.183-0.873-7.531-6.083-7.406-6.083-10.769s5.277-3.176 6.083-10.769c0.127-1.169-0.864-2.183-2.121-2.183h-14.018c-1.257 0-2.246 1.014-2.121 2.183 0.806 7.593 6.083 7.344 6.083 10.769s-5.21 3.238-6.083 10.769c-0.136 1.169 0.864 2.183 2.121 2.183z"></path>
<path fill="#fffbf9" style="fill: var(--color4, #fffbf9)" d="M21.217 25.143h-10.409c-0.932 0-1.195-1.143-0.541-1.851 1.582-1.704 4.777-2.924 4.777-4.879v-6.476c0-1.26-2.271-2.222-3.676-4.267-0.232-0.337-0.209-0.813 0.381-0.813h8.53c0.503 0 0.611 0.472 0.382 0.81-1.385 2.048-3.705 3.003-3.705 4.27v6.476c0 1.938 3.329 2.984 4.805 4.881 0.595 0.764 0.387 1.85-0.544 1.85z"></path>
</symbol>
<symbol id="icon-restaurant-outline" viewBox="0 0 32 32">
<path fill="none" stroke="#fffbf9" style="stroke: var(--color4, #fffbf9)" stroke-linejoin="round" stroke-linecap="butt" stroke-miterlimit="4" stroke-width="1.0909" d="M4.753 3.636l22.225 22.326c0.422 0.424 0.659 0.998 0.659 1.597s-0.237 1.174-0.659 1.597c-0.422 0.424-0.994 0.661-1.59 0.661s-1.168-0.238-1.59-0.661l-5.429-5.548c-0.355-0.362-0.555-0.851-0.555-1.359v-0.335c0-0.257-0.051-0.511-0.149-0.748s-0.243-0.452-0.425-0.632l-0.701-0.65c-0.238-0.221-0.527-0.377-0.841-0.456s-0.643-0.077-0.956 0.005c-0.494 0.13-1.013 0.127-1.506-0.007s-0.942-0.396-1.303-0.758l-5.153-5.177c-3.057-3.071-4.182-7.709-2.026-9.854z"></path>
<path fill="none" stroke="#fffbf9" style="stroke: var(--color4, #fffbf9)" stroke-linejoin="round" stroke-linecap="round" stroke-miterlimit="4" stroke-width="1.0909" d="M24.883 2.909l-4.766 4.766c-0.367 0.367-0.658 0.802-0.856 1.281s-0.301 0.993-0.301 1.511v0.917c0 0.13-0.025 0.258-0.075 0.378s-0.122 0.229-0.214 0.32l-0.698 0.698M19.948 14.753l0.698-0.698c0.092-0.092 0.201-0.165 0.32-0.214s0.248-0.075 0.378-0.075h0.917c0.519 0 1.032-0.102 1.511-0.301s0.914-0.489 1.281-0.856l4.766-4.766M27.351 5.377l-4.935 4.935M12.545 23.637l-6.152 6.186c-0.463 0.463-1.090 0.722-1.745 0.722s-1.282-0.26-1.745-0.722c-0.463-0.463-0.722-1.090-0.722-1.745s0.26-1.282 0.722-1.745l5.199-5.165"></path>
</symbol>
<symbol id="icon-alarm-01" viewBox="0 0 32 32">
<path fill="none" stroke="#ea7b00" style="stroke: var(--color2, #ea7b00)" stroke-linejoin="miter" stroke-linecap="round" stroke-miterlimit="4" stroke-width="1.3333" d="M16 12.416v4.184c0 0.272 0.108 0.532 0.3 0.724l2.26 2.26M3.2 9.344v-1.024c0-2.828 2.292-5.12 5.12-5.12h1.024M22.656 3.2h1.024c2.828 0 5.12 2.292 5.12 5.12v1.024M7.808 25.216l-3.584 3.584M27.776 28.8l-3.584-3.584M27.264 17.024c0 6.221-5.043 11.264-11.264 11.264s-11.264-5.043-11.264-11.264c0-6.221 5.043-11.264 11.264-11.264s11.264 5.043 11.264 11.264z"></path>
</symbol>
<symbol id="icon-arrow-forward-circle-outline" viewBox="0 0 32 32">
<path fill="none" stroke="#ea7b00" style="stroke: var(--color2, #ea7b00)" stroke-linejoin="round" stroke-linecap="round" stroke-miterlimit="4" stroke-width="1" d="M15.586 21l-4.961-5 4.961-5M11.314 16h10.061"></path>
<path fill="none" stroke="#ea7b00" style="stroke: var(--color2, #ea7b00)" stroke-linejoin="miter" stroke-linecap="butt" stroke-miterlimit="10" stroke-width="1" d="M16 28c-6.625 0-12-5.375-12-12s5.375-12 12-12c6.625 0 12 5.375 12 12s-5.375 12-12 12z"></path>
</symbol>
<symbol id="icon-bicycle" viewBox="0 0 32 32">
<path d="M24.25 28c-1.137 0-2.249-0.337-3.195-0.969s-1.683-1.53-2.118-2.581c-0.435-1.051-0.549-2.207-0.327-3.322s0.769-2.14 1.574-2.944 1.829-1.352 2.944-1.574c1.115-0.222 2.271-0.108 3.322 0.327s1.949 1.172 2.581 2.118c0.632 0.946 0.969 2.057 0.969 3.195-0.002 1.525-0.608 2.986-1.686 4.064s-2.539 1.684-4.064 1.686zM24.25 18.5c-0.742 0-1.467 0.22-2.083 0.632s-1.097 0.998-1.381 1.683-0.358 1.439-0.213 2.167c0.145 0.727 0.502 1.396 1.026 1.92s1.193 0.882 1.92 1.026c0.727 0.145 1.481 0.071 2.167-0.213s1.271-0.765 1.683-1.381c0.412-0.617 0.632-1.342 0.632-2.083-0.001-0.994-0.397-1.947-1.1-2.65s-1.656-1.098-2.65-1.1zM7.75 28c-1.137 0-2.249-0.337-3.195-0.969s-1.683-1.53-2.118-2.581c-0.435-1.051-0.549-2.207-0.327-3.322s0.769-2.14 1.574-2.944 1.829-1.352 2.944-1.574c1.115-0.222 2.272-0.108 3.322 0.327s1.949 1.172 2.581 2.118c0.632 0.946 0.969 2.057 0.969 3.195-0.002 1.525-0.608 2.986-1.686 4.064s-2.54 1.684-4.064 1.686zM7.75 18.5c-0.742 0-1.467 0.22-2.083 0.632s-1.097 0.998-1.381 1.683-0.358 1.439-0.213 2.167c0.145 0.727 0.502 1.396 1.026 1.92s1.193 0.882 1.92 1.026c0.727 0.145 1.481 0.071 2.167-0.213s1.271-0.765 1.683-1.381c0.412-0.617 0.632-1.342 0.632-2.083-0.001-0.994-0.397-1.947-1.1-2.65s-1.656-1.098-2.65-1.1zM20 8c0.263 0.001 0.524-0.050 0.768-0.151s0.465-0.248 0.651-0.435c0.186-0.187 0.333-0.408 0.433-0.652s0.15-0.505 0.149-0.768c0.003-0.262-0.046-0.522-0.145-0.765s-0.245-0.463-0.43-0.649c-0.185-0.186-0.405-0.333-0.648-0.432s-0.502-0.15-0.765-0.148c-0.263-0.001-0.523 0.050-0.766 0.15s-0.464 0.246-0.65 0.432c-0.186 0.185-0.334 0.405-0.435 0.647s-0.154 0.502-0.155 0.765 0.050 0.523 0.15 0.766c0.1 0.243 0.246 0.464 0.431 0.65s0.405 0.334 0.647 0.436c0.242 0.101 0.502 0.154 0.765 0.155z"></path>
<path d="M22.972 12h-2.735c-0.045 0-0.089-0.012-0.128-0.035s-0.070-0.056-0.092-0.095l-1.984-3.636c-0.14-0.27-0.341-0.504-0.588-0.682s-0.532-0.295-0.832-0.342-0.608-0.023-0.897 0.071c-0.289 0.094-0.553 0.254-0.769 0.469l-4.366 4.4c-0.367 0.374-0.575 0.876-0.581 1.4 0 1.087 0.787 1.475 1.156 1.694 1.781 1.026 3.036 1.777 3.724 2.194 0.037 0.022 0.067 0.054 0.088 0.091s0.032 0.079 0.032 0.122v4.32c0 0.538 0.414 1 0.952 1.027 0.135 0.007 0.27-0.014 0.397-0.062s0.243-0.12 0.341-0.213c0.098-0.093 0.176-0.205 0.229-0.33s0.081-0.258 0.081-0.393v-5.375c0-0.159-0.038-0.315-0.11-0.457s-0.177-0.263-0.306-0.356l-2.313-1.663c-0.029-0.021-0.053-0.047-0.071-0.078s-0.029-0.065-0.032-0.101c-0.003-0.036 0.001-0.071 0.012-0.105s0.030-0.065 0.055-0.091l2.625-2.799c0.027-0.029 0.060-0.051 0.097-0.064s0.077-0.018 0.116-0.013c0.039 0.005 0.077 0.019 0.109 0.041s0.060 0.052 0.079 0.086l1.364 2.461c0.087 0.156 0.213 0.286 0.367 0.377s0.329 0.138 0.508 0.138h3.5c0.135 0 0.27-0.027 0.394-0.080s0.237-0.131 0.331-0.229 0.166-0.214 0.213-0.341c0.047-0.127 0.068-0.262 0.062-0.397-0.026-0.538-0.49-0.952-1.028-0.952z"></path>
</symbol>
<symbol id="icon-cart-outline" viewBox="0 0 32 32">
<path stroke-linejoin="round" stroke-linecap="round" stroke-miterlimit="4" stroke-width="1.3333" d="M11 27c0.552 0 1-0.448 1-1s-0.448-1-1-1c-0.552 0-1 0.448-1 1s0.448 1 1 1z"></path>
<path stroke-linejoin="round" stroke-linecap="round" stroke-miterlimit="4" stroke-width="1.3333" d="M25 27c0.552 0 1-0.448 1-1s-0.448-1-1-1c-0.552 0-1 0.448-1 1s0.448 1 1 1z"></path>
<path stroke-linejoin="round" stroke-linecap="round" stroke-miterlimit="4" stroke-width="1.3333" d="M3 5h4l3 17h16"></path>
<path stroke-linejoin="round" stroke-linecap="round" stroke-miterlimit="4" stroke-width="1.3333" d="M10 18h15.59c0.116 0 0.228-0.040 0.317-0.113s0.151-0.175 0.173-0.289l1.8-9c0.015-0.073 0.013-0.147-0.005-0.219s-0.052-0.139-0.099-0.196-0.106-0.103-0.173-0.135c-0.067-0.032-0.14-0.048-0.214-0.048h-19.39"></path>
</symbol>
<symbol id="icon-close-circle-outline" viewBox="0 0 32 32">
<path fill="none" stroke="#f6f1ee" style="stroke: var(--color1, #f6f1ee)" stroke-linejoin="miter" stroke-linecap="butt" stroke-miterlimit="10" stroke-width="1.3333" d="M28.17 16.216c0-6.795-5.513-12.308-12.308-12.308s-12.308 5.513-12.308 12.308c0 6.795 5.513 12.308 12.308 12.308s12.308-5.513 12.308-12.308z"></path>
<path fill="none" stroke="#f6f1ee" style="stroke: var(--color1, #f6f1ee)" stroke-linejoin="round" stroke-linecap="round" stroke-miterlimit="4" stroke-width="1.3333" d="M19.557 19.908l-7.385-7.385M12.172 19.908l7.385-7.385"></path>
</symbol>
<symbol id="icon-currency-dollar" viewBox="0 0 32 32">
<path fill="none" stroke="#ea7b00" style="stroke: var(--color2, #ea7b00)" stroke-linejoin="round" stroke-linecap="round" stroke-miterlimit="4" stroke-width="1.3333" d="M22.37 10.074c-0.295-0.837-0.833-1.566-1.546-2.094s-1.567-0.831-2.454-0.869h-5.926c-1.179 0-2.309 0.468-3.143 1.302s-1.302 1.964-1.302 3.143 0.468 2.309 1.302 3.143c0.833 0.834 1.964 1.302 3.143 1.302h5.926c1.179 0 2.309 0.468 3.143 1.302s1.302 1.964 1.302 3.143-0.468 2.309-1.302 3.143c-0.834 0.834-1.964 1.302-3.143 1.302h-5.926c-0.886-0.038-1.741-0.341-2.454-0.869s-1.251-1.257-1.546-2.094M15.407 2.667v4.444M15.407 24.889v4.444"></path>
</symbol>
<symbol id="icon-discount-star-02" viewBox="0 0 32 32">
<path fill="none" stroke="#f6f1ee" style="stroke: var(--color1, #f6f1ee)" stroke-linejoin="miter" stroke-linecap="round" stroke-miterlimit="4" stroke-width="1.4545" d="M10.818 21.182l10.364-10.364M11.616 11.609l-0.020-0.021M20.411 20.495l-0.020-0.021M12.511 4.546l-2.789-0.611c-0.446-0.098-0.892 0.16-1.031 0.595l-0.865 2.721c-0.087 0.273-0.301 0.487-0.574 0.574l-2.721 0.865c-0.435 0.138-0.693 0.585-0.595 1.031l0.611 2.789c0.061 0.28-0.017 0.572-0.21 0.784l-1.924 2.11c-0.307 0.337-0.307 0.853 0 1.19l1.924 2.11c0.193 0.212 0.271 0.504 0.21 0.784l-0.611 2.789c-0.098 0.446 0.16 0.892 0.595 1.031l2.721 0.865c0.273 0.087 0.487 0.301 0.574 0.574l0.865 2.721c0.138 0.435 0.585 0.693 1.031 0.595l2.789-0.611c0.28-0.061 0.572 0.017 0.784 0.21l2.11 1.924c0.337 0.307 0.853 0.307 1.19 0l2.11-1.924c0.212-0.193 0.504-0.271 0.784-0.21l2.789 0.611c0.446 0.098 0.892-0.16 1.031-0.595l0.865-2.721c0.087-0.273 0.301-0.487 0.574-0.574l2.721-0.865c0.435-0.138 0.693-0.585 0.595-1.031l-0.611-2.789c-0.061-0.28 0.017-0.572 0.21-0.784l1.924-2.11c0.307-0.337 0.307-0.853 0-1.19l-1.924-2.11c-0.193-0.212-0.271-0.504-0.21-0.784l0.611-2.789c0.098-0.446-0.16-0.892-0.595-1.031l-2.721-0.865c-0.273-0.087-0.487-0.301-0.574-0.574l-0.865-2.721c-0.138-0.435-0.585-0.693-1.031-0.595l-2.789 0.611c-0.28 0.061-0.572-0.017-0.784-0.21l-2.11-1.924c-0.337-0.307-0.853-0.307-1.19 0l-2.11 1.924c-0.212 0.193-0.504 0.271-0.784 0.21z"></path>
</symbol>
<symbol id="icon-document-text-outline" viewBox="0 0 32 32">
<path stroke-linejoin="round" stroke-linecap="butt" stroke-miterlimit="4" stroke-width="1.3333" d="M26 13.828v12.172c0 0.796-0.316 1.559-0.879 2.121s-1.326 0.879-2.121 0.879h-14c-0.796 0-1.559-0.316-2.121-0.879s-0.879-1.326-0.879-2.121v-20c0-0.796 0.316-1.559 0.879-2.121s1.326-0.879 2.121-0.879h6.172c0.53 0 1.039 0.211 1.414 0.586l8.829 8.829c0.375 0.375 0.585 0.883 0.586 1.414z"></path>
<path stroke-linejoin="round" stroke-linecap="round" stroke-miterlimit="4" stroke-width="1.3333" d="M16 3.5v7.5c0 0.53 0.211 1.039 0.586 1.414s0.884 0.586 1.414 0.586h7.5M11 18h10M11 23h10"></path>
</symbol>
<symbol id="icon-heart-outline" viewBox="0 0 32 32">
<path stroke-linejoin="round" stroke-linecap="round" stroke-miterlimit="4" stroke-width="1.3333" d="M22.058 5.333c-4.057 0-6.057 4-6.057 4s-2-4-6.058-4c-3.297 0-5.909 2.759-5.942 6.051-0.069 6.833 5.421 11.692 11.438 15.776 0.166 0.113 0.362 0.173 0.563 0.173s0.397-0.060 0.563-0.173c6.016-4.084 11.506-8.943 11.437-15.776-0.034-3.292-2.645-6.051-5.943-6.051z"></path>
</symbol>
<symbol id="icon-Icon-facebook" viewBox="0 0 32 32">
<path fill="none" stroke="#ea7b00" style="stroke: var(--color2, #ea7b00)" stroke-linejoin="miter" stroke-linecap="butt" stroke-miterlimit="4" stroke-width="1.2308" d="M30.769 16c0 8.157-6.612 14.769-14.769 14.769s-14.769-6.612-14.769-14.769c0-8.157 6.612-14.769 14.769-14.769s14.769 6.612 14.769 14.769z"></path>
<path fill="none" stroke="#ea7b00" style="stroke: var(--color2, #ea7b00)" stroke-linejoin="miter" stroke-linecap="butt" stroke-miterlimit="4" stroke-width="1.2308" d="M16.87 17.001v5.152h-2.492v-5.152h-2.070v-2.089h2.070v-0.76c0-2.822 1.241-4.306 3.867-4.306 0.805 0 1.006 0.123 1.447 0.223v2.066c-0.494-0.082-0.633-0.127-1.145-0.127-0.608 0-0.934 0.164-1.232 0.487s-0.446 0.883-0.446 1.684v0.737h2.823l-0.757 2.089h-2.065v-0.005z"></path>
</symbol>
<symbol id="icon-Icon-insta" viewBox="0 0 32 32">
<path fill="none" stroke="#ea7b00" style="stroke: var(--color2, #ea7b00)" stroke-linejoin="miter" stroke-linecap="butt" stroke-miterlimit="4" stroke-width="1.2308" d="M30.769 16c0 8.157-6.612 14.769-14.769 14.769s-14.769-6.612-14.769-14.769c0-8.157 6.612-14.769 14.769-14.769s14.769 6.612 14.769 14.769z"></path>
<path fill="none" stroke="#ea7b00" style="stroke: var(--color2, #ea7b00)" stroke-linejoin="miter" stroke-linecap="butt" stroke-miterlimit="4" stroke-width="1.2308" d="M19.458 21.407h-6.947c-0.96 0-1.744-0.784-1.744-1.744v-6.947c0-0.96 0.784-1.744 1.744-1.744h6.947c0.96 0 1.744 0.784 1.744 1.744v6.947c0 0.964-0.78 1.744-1.744 1.744z"></path>
<path fill="none" stroke="#ea7b00" style="stroke: var(--color2, #ea7b00)" stroke-linejoin="miter" stroke-linecap="butt" stroke-miterlimit="4" stroke-width="1.2308" d="M14.092 18.087c0.506 0.506 1.179 0.785 1.894 0.785s1.384-0.279 1.894-0.785c0.506-0.506 0.784-1.179 0.784-1.895s-0.279-1.389-0.784-1.895c-0.506-0.506-1.179-0.784-1.894-0.784s-1.389 0.279-1.894 0.784c-0.506 0.506-0.784 1.179-0.784 1.895s0.279 1.389 0.784 1.895z"></path>
<path fill="none" stroke="#ea7b00" style="stroke: var(--color2, #ea7b00)" stroke-linejoin="miter" stroke-linecap="butt" stroke-miterlimit="4" stroke-width="1.2308" d="M19.187 13.427c0.284 0 0.514-0.231 0.514-0.515s-0.23-0.515-0.514-0.515c-0.284 0-0.514 0.231-0.514 0.515s0.23 0.515 0.514 0.515z"></path>
</symbol>
<symbol id="icon-Icon-telegram" viewBox="0 0 32 32">
<path fill="none" stroke="#ea7b00" style="stroke: var(--color2, #ea7b00)" stroke-linejoin="miter" stroke-linecap="butt" stroke-miterlimit="4" stroke-width="1.2308" d="M30.769 16c0 8.157-6.612 14.769-14.769 14.769s-14.769-6.612-14.769-14.769c0-8.157 6.612-14.769 14.769-14.769s14.769 6.612 14.769 14.769z"></path>
<path fill="none" stroke="#ea7b00" style="stroke: var(--color2, #ea7b00)" stroke-linejoin="miter" stroke-linecap="butt" stroke-miterlimit="4" stroke-width="1.2308" d="M10.091 19.892c1.286 0.072 2.41-0.228 3.507-1.024-1.108-0.189-1.876-0.696-2.294-1.742 0.323-0.045 0.607 0.039 0.941-0.095-1.091-0.479-1.798-1.197-1.826-2.438 0.345 0.028 0.607 0.256 1.019 0.223-1.002-0.98-1.308-2.049-0.679-3.346 1.047 1.202 2.271 2.021 3.769 2.405 0.084 0.022 0.161 0.045 0.245 0.061 0.384 0.089 0.841 0.278 1.074 0.251 0.401-0.050 0-0.512 0.1-1.113 0.317-1.87 2.377-2.722 3.902-1.625 0.445 0.323 0.796 0.317 1.236 0.122 0.228-0.1 0.462-0.2 0.735-0.317-0.061 0.534-0.473 0.829-0.802 1.225 0.373 0.083 0.674-0.022 1.019-0.134-0.117 0.384-0.406 0.601-0.668 0.813-0.273 0.217-0.378 0.445-0.39 0.802-0.167 5.394-6.296 9.564-10.488 6.246-0.406-0.323-0.011 0-0.401-0.312z"></path>
</symbol>
<symbol id="icon-logo" viewBox="0 0 43 32">
<path fill="#ea7b00" style="fill: var(--color2, #ea7b00)" d="M42.667 8.381h-12.952v3.048h12.952v-3.048z"></path>
<path fill="#ea7b00" style="fill: var(--color2, #ea7b00)" d="M42.667 3.048h-12.952v3.048h12.952v-3.048z"></path>
<path fill="#ea7b00" style="fill: var(--color2, #ea7b00)" d="M24.377 16.426l-1.052-15.858 3.035-0.094 1.118 15.195-3.102 0.756z"></path>
<path fill="#ea7b00" style="fill: var(--color2, #ea7b00)" d="M26.409 0h-8.381v3.048h8.381v-3.048z"></path>
<path fill="#ea7b00" style="fill: var(--color2, #ea7b00)" d="M42.667 13.714h-18.286v3.048h18.286v-3.048z"></path>
<path fill="#ea7b00" style="fill: var(--color2, #ea7b00)" d="M28.245 20.923c0.996 0 1.803-0.826 1.803-1.846s-0.807-1.846-1.803-1.846c-0.996 0-1.803 0.826-1.803 1.846s0.807 1.846 1.803 1.846z"></path>
<path fill="#ea7b00" style="fill: var(--color2, #ea7b00)" d="M39.062 20.923c0.996 0 1.803-0.826 1.803-1.846s-0.807-1.846-1.803-1.846c-0.996 0-1.803 0.826-1.803 1.846s0.807 1.846 1.803 1.846z"></path>
<path fill="#ea7b00" style="fill: var(--color2, #ea7b00)" d="M0 20.667v-20.667h6.108c2.542 0 4.307 0.199 5.294 0.596 2.11 0.829 3.166 2.29 3.166 4.381 0 1.439-0.366 2.639-1.099 3.6s-1.958 1.854-3.675 2.679l7.539 9.41h-4.059l-6.894-8.602h-3.030v8.602h-3.35zM3.35 9.681h1.77c1.808 0 3.237-0.377 4.29-1.13s1.58-1.77 1.583-3.051c0-1.194-0.397-2.012-1.192-2.454s-2.259-0.662-4.391-0.661h-2.060v7.297z"></path>
<path fill="#ea7b00" style="fill: var(--color2, #ea7b00)" d="M36.878 24.014h1.223l1.301 3.013 0.442 1.254h0.026l0.442-1.254 1.184-3.013h1.171l-2.354 5.712c-0.26 0.635-0.59 1.131-0.989 1.49-0.39 0.358-0.858 0.62-1.405 0.784l-0.494-0.784c0.407-0.134 0.767-0.329 1.080-0.583 0.321-0.254 0.568-0.605 0.742-1.053l0.117-0.302-2.484-5.264z"></path>
<path fill="#ea7b00" style="fill: var(--color2, #ea7b00)" d="M32.527 29.278v-5.264h0.858l0.195 1.053c0.147-0.336 0.39-0.608 0.728-0.818s0.728-0.314 1.17-0.314c0.226 0 0.412 0.015 0.559 0.045s0.282 0.067 0.403 0.112l-0.221 0.862c-0.104-0.045-0.221-0.082-0.351-0.112-0.122-0.030-0.269-0.045-0.442-0.045-0.252 0-0.486 0.037-0.702 0.112-0.208 0.075-0.395 0.187-0.559 0.336-0.156 0.149-0.282 0.336-0.377 0.56-0.087 0.217-0.13 0.467-0.13 0.75v2.722h-1.132z"></path>
<path fill="#ea7b00" style="fill: var(--color2, #ea7b00)" d="M31.201 26.758h-4.383v0.045c0 0.583 0.182 1.030 0.546 1.344 0.373 0.314 0.876 0.47 1.509 0.47 0.329 0 0.62-0.023 0.871-0.067 0.26-0.045 0.542-0.119 0.846-0.224l0.234 0.728c-0.252 0.097-0.551 0.175-0.898 0.235-0.338 0.060-0.702 0.090-1.093 0.090-0.442 0-0.858-0.052-1.249-0.157-0.381-0.105-0.72-0.265-1.015-0.482-0.295-0.224-0.529-0.508-0.702-0.851-0.165-0.344-0.247-0.754-0.247-1.232 0-0.411 0.069-0.784 0.208-1.12 0.147-0.336 0.351-0.62 0.612-0.851 0.26-0.239 0.572-0.422 0.937-0.549 0.373-0.134 0.789-0.202 1.249-0.202 0.39 0 0.741 0.056 1.053 0.168 0.321 0.112 0.594 0.269 0.82 0.471s0.399 0.444 0.52 0.728c0.121 0.284 0.182 0.597 0.182 0.941v0.515zM30.017 26.052c0-0.194-0.030-0.373-0.091-0.538-0.052-0.172-0.139-0.321-0.26-0.448-0.113-0.127-0.26-0.228-0.442-0.302s-0.403-0.112-0.664-0.112c-0.477 0-0.867 0.131-1.171 0.392-0.295 0.261-0.477 0.605-0.546 1.030l3.174-0.022z"></path>
<path fill="#ea7b00" style="fill: var(--color2, #ea7b00)" d="M23.863 24.014h1.223l-2.276 5.264h-1.119l-2.302-5.264h1.236l1.379 3.618 0.234 0.829h0.052l0.221-0.818 1.353-3.629z"></path>
<path fill="#ea7b00" style="fill: var(--color2, #ea7b00)" d="M17.085 29.278v-5.265h1.145v5.265h-1.145zM17.657 22.658c-0.199 0-0.373-0.056-0.52-0.168-0.139-0.119-0.208-0.265-0.208-0.437s0.069-0.317 0.208-0.437c0.147-0.119 0.321-0.179 0.52-0.179 0.191 0 0.36 0.060 0.507 0.179s0.221 0.265 0.221 0.437-0.074 0.317-0.221 0.437c-0.147 0.112-0.317 0.168-0.507 0.168z"></path>
<path fill="#ea7b00" style="fill: var(--color2, #ea7b00)" d="M13.957 29.278v-7.953h1.119v7.953h-1.119z"></path>
<path fill="#ea7b00" style="fill: var(--color2, #ea7b00)" d="M12.553 26.758h-4.383v0.045c0 0.583 0.182 1.030 0.546 1.344 0.373 0.314 0.876 0.47 1.509 0.47 0.33 0 0.62-0.023 0.871-0.067 0.26-0.045 0.542-0.119 0.845-0.224l0.234 0.728c-0.251 0.097-0.551 0.175-0.897 0.235-0.338 0.060-0.702 0.090-1.093 0.090-0.442 0-0.858-0.052-1.249-0.157-0.382-0.105-0.72-0.265-1.015-0.482-0.295-0.224-0.529-0.508-0.702-0.851-0.165-0.344-0.247-0.754-0.247-1.232 0-0.411 0.069-0.784 0.208-1.12 0.147-0.336 0.351-0.62 0.611-0.851 0.26-0.239 0.572-0.422 0.937-0.549 0.373-0.134 0.789-0.202 1.249-0.202 0.39 0 0.741 0.056 1.054 0.168 0.321 0.112 0.594 0.269 0.819 0.471s0.399 0.444 0.52 0.728c0.121 0.284 0.182 0.597 0.182 0.941v0.515zM11.37 26.052c0-0.194-0.030-0.373-0.091-0.538-0.052-0.172-0.139-0.321-0.26-0.448-0.113-0.127-0.26-0.228-0.442-0.302s-0.403-0.112-0.663-0.112c-0.477 0-0.867 0.131-1.171 0.392-0.295 0.261-0.477 0.605-0.546 1.030l3.174-0.022z"></path>
<path fill="#ea7b00" style="fill: var(--color2, #ea7b00)" d="M4.435 21.325h1.145v7.953h-0.963l-0.143-0.583h-0.039c-0.269 0.239-0.542 0.414-0.819 0.527-0.269 0.104-0.611 0.157-1.028 0.157-0.33 0-0.65-0.056-0.963-0.168-0.304-0.112-0.577-0.28-0.819-0.504s-0.438-0.504-0.585-0.84c-0.147-0.343-0.221-0.747-0.221-1.21 0-0.411 0.061-0.784 0.182-1.12 0.13-0.336 0.312-0.623 0.546-0.862s0.52-0.422 0.858-0.549 0.724-0.19 1.158-0.19c0.321 0 0.624 0.045 0.911 0.134 0.295 0.082 0.555 0.209 0.78 0.381v-3.125zM4.435 25.279c-0.408-0.396-0.889-0.594-1.444-0.594-0.234 0-0.464 0.037-0.689 0.112-0.217 0.067-0.412 0.179-0.585 0.336-0.165 0.157-0.299 0.358-0.403 0.605s-0.156 0.542-0.156 0.885c0 0.358 0.048 0.664 0.143 0.919 0.095 0.246 0.221 0.452 0.377 0.616 0.165 0.157 0.347 0.273 0.546 0.347 0.208 0.075 0.416 0.112 0.624 0.112 0.65 0 1.179-0.243 1.587-0.728v-2.61z"></path>
</symbol>
<symbol id="icon-log-out-outline" viewBox="0 0 32 32">
<path stroke-linejoin="round" stroke-linecap="round" stroke-miterlimit="4" stroke-width="1.3333" d="M19 21v2.5c0 0.663-0.263 1.299-0.732 1.768s-1.105 0.732-1.768 0.732h-10c-0.663 0-1.299-0.263-1.768-0.732s-0.732-1.105-0.732-1.768v-15c0-0.663 0.263-1.299 0.732-1.768s1.105-0.732 1.768-0.732h9.5c1.381 0 3 1.119 3 2.5v2.5M23 21l5-5-5-5M11 16h16"></path>
</symbol>
<symbol id="icon-Medium" viewBox="0 0 32 32">
<path fill="#989898" style="fill: var(--color5, #989898)" d="M28.296 29.351c-0.139 0-0.276-0.027-0.404-0.080s-0.245-0.131-0.342-0.23l-23.24-23.24c-0.19-0.2-0.294-0.466-0.29-0.741s0.115-0.539 0.309-0.733c0.195-0.195 0.458-0.306 0.733-0.309s0.541 0.101 0.741 0.29l23.24 23.24c0.148 0.148 0.248 0.336 0.289 0.541s0.020 0.417-0.060 0.61c-0.080 0.193-0.215 0.358-0.389 0.474s-0.378 0.178-0.587 0.178zM16.147 20.627l-3.419-3.419c-0.020-0.019-0.045-0.032-0.072-0.037s-0.055-0-0.080 0.012-0.045 0.032-0.058 0.056c-0.013 0.024-0.018 0.052-0.014 0.080 0.138 0.887 0.555 1.707 1.189 2.342s1.455 1.051 2.342 1.189c0.027 0.004 0.055-0.001 0.079-0.014s0.044-0.033 0.057-0.058c0.012-0.025 0.017-0.053 0.012-0.080s-0.017-0.052-0.037-0.072zM17.204 12.724l3.425 3.423c0.020 0.020 0.045 0.033 0.072 0.037s0.055 0 0.080-0.012c0.025-0.012 0.045-0.032 0.058-0.057s0.018-0.053 0.014-0.080c-0.138-0.888-0.555-1.71-1.19-2.345s-1.457-1.052-2.345-1.19c-0.027-0.004-0.056 0-0.080 0.013s-0.045 0.033-0.057 0.058c-0.013 0.025-0.017 0.053-0.013 0.080s0.017 0.053 0.037 0.073z"></path>
<path fill="#989898" style="fill: var(--color5, #989898)" d="M30.025 17.085c0.202-0.325 0.309-0.702 0.308-1.087s-0.11-0.762-0.314-1.085c-1.617-2.558-3.715-4.73-6.066-6.283-2.605-1.72-5.477-2.629-8.307-2.629-1.492 0.002-2.974 0.251-4.389 0.737-0.040 0.013-0.075 0.037-0.103 0.069s-0.048 0.070-0.057 0.111c-0.010 0.042-0.009 0.085 0.003 0.126s0.033 0.078 0.063 0.109l2.887 2.952c0.030 0.031 0.067 0.053 0.108 0.064s0.084 0.012 0.125 0.001c0.979-0.244 2.002-0.226 2.972 0.052s1.853 0.806 2.565 1.535c0.712 0.728 1.229 1.632 1.501 2.624s0.289 2.039 0.051 3.039c-0.010 0.042-0.010 0.086 0.001 0.128s0.033 0.080 0.063 0.11l4.152 4.25c0.043 0.044 0.101 0.070 0.162 0.073s0.121-0.018 0.168-0.058c1.598-1.393 2.983-3.024 4.109-4.838zM15.665 22c-0.888 0-1.764-0.206-2.563-0.603s-1.499-0.974-2.048-1.688c-0.549-0.714-0.932-1.546-1.121-2.434s-0.178-1.807 0.031-2.69c0.010-0.042 0.010-0.086-0.001-0.128s-0.033-0.080-0.063-0.11l-4.084-4.179c-0.043-0.044-0.101-0.070-0.163-0.073s-0.121 0.018-0.168 0.059c-1.49 1.301-2.872 2.883-4.135 4.733-0.221 0.325-0.343 0.709-0.35 1.105s0.101 0.784 0.311 1.117c1.614 2.583 3.69 4.759 6.005 6.291 2.609 1.727 5.411 2.602 8.329 2.602 1.507-0.004 3.005-0.248 4.439-0.722 0.040-0.013 0.076-0.036 0.105-0.068s0.049-0.070 0.059-0.111c0.010-0.042 0.009-0.085-0.002-0.127s-0.033-0.079-0.063-0.109l-2.901-2.966c-0.030-0.031-0.067-0.053-0.108-0.064s-0.084-0.012-0.125-0.001c-0.453 0.112-0.918 0.169-1.384 0.169z"></path>
</symbol>
<symbol id="icon-mobile-menu" viewBox="0 0 32 32">
<path fill="none" stroke="#ea7b00" style="stroke: var(--color2, #ea7b00)" stroke-linejoin="miter" stroke-linecap="round" stroke-miterlimit="10" stroke-width="1.5" d="M5 10h22M5 16h22M5 22h22"></path>
</symbol>
<symbol id="icon-person-outline" viewBox="0 0 32 32">
<path fill="none" stroke="#ea7b00" style="stroke: var(--color2, #ea7b00)" stroke-linejoin="round" stroke-linecap="round" stroke-miterlimit="4" stroke-width="1.5238" d="M21.5 9c-0.245 3.304-2.75 6-5.5 6s-5.259-2.695-5.5-6c-0.25-3.438 2.188-6 5.5-6s5.75 2.625 5.5 6z"></path>
<path fill="none" stroke="#ea7b00" style="stroke: var(--color2, #ea7b00)" stroke-linejoin="miter" stroke-linecap="butt" stroke-miterlimit="10" stroke-width="1.5238" d="M16 19c-5.438 0-10.956 3-11.977 8.662-0.123 0.683 0.263 1.337 0.978 1.337h22c0.715 0 1.101-0.655 0.978-1.337-1.022-5.662-6.54-8.662-11.978-8.662z"></path>
</symbol>
<symbol id="icon-search-outline" viewBox="0 0 32 32">
<path fill="none" stroke="#ea7b00" style="stroke: var(--color2, #ea7b00)" stroke-linejoin="miter" stroke-linecap="butt" stroke-miterlimit="10" stroke-width="1.3333" d="M13.818 4c-1.942 0-3.84 0.576-5.455 1.655s-2.873 2.612-3.616 4.406c-0.743 1.794-0.938 3.768-0.559 5.673s1.314 3.654 2.687 5.027c1.373 1.373 3.123 2.308 5.027 2.687s3.879 0.184 5.673-0.559c1.794-0.743 3.327-2.002 4.406-3.616s1.655-3.513 1.655-5.455c-0-2.604-1.035-5.101-2.876-6.942s-4.338-2.876-6.942-2.876z"></path>
<path fill="none" stroke="#ea7b00" style="stroke: var(--color2, #ea7b00)" stroke-linejoin="miter" stroke-linecap="round" stroke-miterlimit="10" stroke-width="1.3333" d="M21.143 21.143l6.857 6.857"></path>
</symbol>
<symbol id="icon-trash-outline" viewBox="0 0 32 32">
<path fill="none" stroke="#ea7b00" style="stroke: var(--color2, #ea7b00)" stroke-linejoin="round" stroke-linecap="round" stroke-miterlimit="4" stroke-width="1.3333" d="M7 7l1.25 20c0.059 1.156 0.9 2 2 2h11.5c1.104 0 1.929-0.844 2-2l1.25-20"></path>
<path fill="#ea7b00" style="fill: var(--color2, #ea7b00)" d="M5 7v0z"></path>
<path fill="none" stroke="#ea7b00" style="stroke: var(--color2, #ea7b00)" stroke-linejoin="miter" stroke-linecap="round" stroke-miterlimit="10" stroke-width="1.3333" d="M5 7h22"></path>
<path fill="none" stroke="#ea7b00" style="stroke: var(--color2, #ea7b00)" stroke-linejoin="round" stroke-linecap="round" stroke-miterlimit="4" stroke-width="1.3333" d="M12 7v-2.5c-0.001-0.197 0.038-0.392 0.113-0.575s0.186-0.348 0.325-0.487c0.139-0.139 0.305-0.25 0.487-0.325s0.378-0.114 0.575-0.113h5c0.197-0.001 0.392 0.038 0.575 0.113s0.348 0.186 0.487 0.325c0.139 0.139 0.25 0.305 0.325 0.487s0.114 0.378 0.113 0.575v2.5M16 11v14M11.5 11l0.5 14M20.5 11l-0.5 14"></path>
</symbol>
<symbol id="icon-Vector" viewBox="0 0 32 32">
<path fill="#4285f4" style="fill: var(--color6, #4285f4)" d="M16 13.091v6.196h8.611c-0.378 1.993-1.513 3.68-3.215 4.815l5.193 4.029c3.025-2.793 4.771-6.895 4.771-11.767 0-1.135-0.102-2.225-0.291-3.273l-15.069-0z"></path>
<path fill="#34a853" style="fill: var(--color7, #34a853)" d="M7.033 19.045l-1.171 0.897-4.146 3.229c2.633 5.222 8.029 8.829 14.283 8.829 4.32 0 7.942-1.425 10.589-3.869l-5.193-4.029c-1.425 0.96-3.244 1.542-5.396 1.542-4.16 0-7.694-2.807-8.96-6.589l-0.007-0.009z"></path>
<path fill="#fbbc05" style="fill: var(--color8, #fbbc05)" d="M1.716 8.829c-1.091 2.153-1.716 4.582-1.716 7.171s0.625 5.018 1.716 7.171c0 0.015 5.324-4.131 5.324-4.131-0.32-0.96-0.509-1.978-0.509-3.040s0.189-2.080 0.509-3.040l-5.324-4.131z"></path>
<path fill="#ea4335" style="fill: var(--color9, #ea4335)" d="M16 6.371c2.356 0 4.451 0.815 6.124 2.385l4.582-4.582c-2.778-2.589-6.385-4.175-10.705-4.175-6.254 0-11.651 3.593-14.283 8.829l5.324 4.131c1.265-3.782 4.8-6.589 8.96-6.589z"></path>
</symbol>
<symbol id="icon-wallet-02" viewBox="0 0 32 32">
<path fill="none" stroke="#ea7b00" style="stroke: var(--color2, #ea7b00)" stroke-linejoin="round" stroke-linecap="round" stroke-miterlimit="4" stroke-width="1.3333" d="M23.68 4.053h-18.489c-1.1 0-1.989 1.182-1.99 2.4-0.001 1.6 0.89 3.182 1.99 3.182h20.764c1.571 0 2.844-0.327 2.844 1.244v13.653c0 1.885-1.528 3.413-3.413 3.413h-18.773c-1.885 0-3.413-1.528-3.413-3.413v-17.28M21.995 17.684l-0.022 0.022"></path>
</symbol>
</defs>
</svg>
